# xmcd
# 
# Track frame offsets:
#     150
#     22370
#     41035
#     64615
#     84537
#     108350
#     130010
#     170645
#     197817
#     221195
# 
# Disc length: 3225
# 
# Revision: 9
# Processed by: cddbd v1.5.2PL0 Copyright (c) Steve Scherf et al.
# Submitted via: BonkEnc v1.0.5
# 
DISCID=940c970a
DTITLE=ZABADAK - 桜
DYEAR=1993
DGENRE=JPop
TTITLE0=五つの橋
TTITLE1=アジアの花
TTITLE2=マーブル　スカイ
TTITLE3=Psi-trailing
TTITLE4=休まない翼
TTITLE5=椎葉の春節
TTITLE6=桜
TTITLE7=百年の満月
TTITLE8=歩きたくなる径
TTITLE9=Tin Waltz
EXTD=YEAR: 1993
EXTT0=
EXTT1=
EXTT2=
EXTT3=
EXTT4=
EXTT5=
EXTT6=
EXTT7=
EXTT8=
EXTT9=
PLAYORDER=
